<?xml version="1.0" encoding="UTF-8" standalone="no"?>
<!-- Created with Inkscape (http://www.inkscape.org/) -->

<svg
   xmlns:dc="http://purl.org/dc/elements/1.1/"
   xmlns:cc="http://creativecommons.org/ns#"
   xmlns:rdf="http://www.w3.org/1999/02/22-rdf-syntax-ns#"
   xmlns:svg="http://www.w3.org/2000/svg"
   xmlns="http://www.w3.org/2000/svg"
   xmlns:sodipodi="http://sodipodi.sourceforge.net/DTD/sodipodi-0.dtd"
   xmlns:inkscape="http://www.inkscape.org/namespaces/inkscape"
   width="62"
   height="52"
   viewBox="0 0 16.404167 13.758333"
   version="1.1"
   id="svg8"
   inkscape:version="0.92.4 (5da689c313, 2019-01-14)"
   sodipodi:docname="Logo-Ez.svg">
  <defs
     id="defs2" />
  <sodipodi:namedview
     id="base"
     pagecolor="#ffffff"
     bordercolor="#666666"
     borderopacity="1.0"
     inkscape:pageopacity="0.0"
     inkscape:pageshadow="2"
     inkscape:zoom="5.12"
     inkscape:cx="108.58429"
     inkscape:cy="1.0494901"
     inkscape:document-units="mm"
     inkscape:current-layer="layer1"
     showgrid="false"
     inkscape:window-width="1366"
     inkscape:window-height="705"
     inkscape:window-x="-8"
     inkscape:window-y="-8"
     inkscape:window-maximized="1"
     units="px" />
  <metadata
     id="metadata5">
    <rdf:RDF>
      <cc:Work
         rdf:about="">
        <dc:format>image/svg+xml</dc:format>
        <dc:type
           rdf:resource="http://purl.org/dc/dcmitype/StillImage" />
        <dc:title></dc:title>
      </cc:Work>
    </rdf:RDF>
  </metadata>
  <g
     inkscape:label="Camada 1"
     inkscape:groupmode="layer"
     id="layer1"
     style="display:inline"
     transform="translate(0,-283.24167)">
    <path
       style="opacity:1;fill:#0C0C0C;stroke:#000000;stroke-width:0.10407849px;stroke-linecap:butt;stroke-linejoin:miter;stroke-opacity:0.01507538"
       d="m 3.2843291,283.33565 c -0.1567803,0.004 -0.3236288,0.0322 -0.5003385,0.0911 0,0 -0.6861266,0.2317 -1.1520865,0.94714 -0.2381997,0.38945 0.140823,1.4555 0.7191992,0.85541 0,0 0.3617058,-0.419 0.8271171,-0.73925 0.2402949,-0.15454 0.5013529,-0.11081 0.6771177,-0.0367 0.8764974,0.32986 1.4598865,5.29115 1.8797413,8.96659 -1.1141652,0.87133 -0.4885503,1.73224 -0.031209,2.21014 -0.2127248,0.22365 -0.2688086,0.42906 -0.3052356,0.68527 -0.049369,0.45011 0.371407,0.68502 0.5514788,0.67398 0.3291217,-0.0441 0.4788327,-0.159 0.6563798,-0.42606 0.1843497,-0.33792 0.1402869,-0.57004 0.080536,-0.79486 l 6.5899666,-0.1685 c -0.223299,0.8848 0.331105,0.99433 0.436512,1.00215 0.140883,0.0161 0.664835,-0.11226 0.775573,-0.77742 0.04553,-0.24047 7.29e-4,-1.05116 -0.75423,-0.76038 l -6.6282229,-0.0692 c 0.2874306,-0.14268 0.4573596,-0.27633 1.0938989,-0.40061 2.55192,-0.39896 5.723761,-0.1802 5.951505,-0.20769 0.715454,-0.0819 0.606431,-0.73177 -0.04792,-0.83078 0,0 -3.712958,-0.57751 -6.9344645,-0.28117 -0.5718987,-2.89598 -1.9704722,-8.46107 -2.1861855,-8.82005 0,0 -0.6016746,-1.14797 -1.6991356,-1.11913 z m 8.9346079,2.64975 c -1.871599,-0.0204 -3.9937784,0.1989 -5.3698243,0.70703 -0.2207852,0.11397 -0.2254934,0.64185 0.2428202,0.57424 2.5843088,-0.80678 5.2182931,-0.71726 7.2362761,-0.17671 0.47269,0.13241 0.987437,0.36704 0.661012,1.58973 l -1.307726,3.78878 c -0.07011,0.18513 -0.154881,0.28908 -0.347517,0.26722 l -4.3272721,-0.6001 c -0.2570775,-0.0454 -0.439063,-0.16749 -0.5154383,-0.39712 l -0.6740979,-4.05334 c -0.071957,-0.29601 -0.4783449,-0.14659 -0.4256396,0.0733 l 0.5633593,3.92814 c 0.1967379,0.86667 0.5958802,0.88079 0.8331572,0.92252 l 4.4770714,0.62924 c 0.45172,0.0316 0.782526,-0.0727 0.922957,-0.39097 l 2.038599,-4.78108 c 0.336891,-0.88789 -0.178092,-1.42482 -0.564364,-1.62133 -0.683598,-0.28282 -1.987682,-0.44364 -3.443373,-0.45952 z m -11.75723966,1.92097 c -0.57110004,-0.012 -0.56271501,0.74202 -0.0171139,0.82503 0.10991404,0.0383 3.22105016,0.25031 3.51746766,0.0172 -0.1587376,-0.32931 -3.07678199,-0.83163 -3.5003531,-0.84228 z m 12.25173866,0.27235 c -0.01281,-1.9e-4 -0.02661,10e-4 -0.04167,0.004 -0.506216,0.10463 -1.31472,0.056 -1.487725,0.32961 -0.05755,0.11983 -7.29e-4,0.30476 0.161279,0.26475 0.2376,-0.17782 0.618666,-0.17326 0.988594,-0.18287 -0.0966,0.6334 -1.076496,1.03062 -1.06611,2.02544 0.0075,0.30056 0.08869,0.31617 0.191878,0.31339 0.733098,-0.0623 1.541877,-0.27309 2.199272,-0.18676 0.116089,-0.01 0.170967,-0.48107 -0.06825,-0.44926 -0.561902,-0.0747 -1.562039,0.10705 -1.950009,0.0253 0.380737,-0.83709 0.946836,-1.06307 1.184905,-1.73463 0.02864,-0.0722 0.08017,-0.4054 -0.112149,-0.40882 z m -2.8435723,0.0722 c -0.061292,-0.003 -0.1218073,-1.3e-4 -0.1804018,0.01 -0.1527194,0.0272 -0.1571085,0.11857 -0.1892637,0.19764 -0.3685862,0.92777 -0.4178316,1.82424 -0.4481896,2.16212 0,0 -0.030472,0.28995 0.1785934,0.20667 0,0 0.3486927,-0.19071 1.696112,0.17034 0.219632,0.0223 0.216024,-0.43599 0.03987,-0.49871 0,0 -0.82659,-0.36485 -1.4565152,-0.28589 -0.020117,-0.18736 0.00164,-0.29941 0.025168,-0.4078 0.3011882,-0.0648 0.5991892,-0.0557 0.8973862,-0.0517 0.217879,-0.0487 0.189596,-0.40755 -0.03121,-0.44453 l -0.7151722,-0.0669 c 0.038287,-0.15598 0.1023623,-0.32211 0.2098019,-0.50549 0.1727993,-0.0413 0.4706983,0.0202 0.7860433,0.096 0.220381,-0.008 0.176452,-0.2187 0.07712,-0.27522 0,0 -0.460265,-0.28685 -0.8893363,-0.3062 z m -8.5119874,2.3497 c -0.46523389,-0.012 -0.45815069,0.74201 -0.013691,0.82503 0.089539,0.0383 2.6238465,0.25031 2.8653159,0.0172 -0.1293112,-0.32931 -2.5065724,-0.83163 -2.8516249,-0.84227 z m 0.4481907,2.89582 c -0.4554007,-0.012 -0.4485587,0.74202 -0.01349,0.82503 0.087647,0.0383 2.5685482,0.25031 2.8049132,0.0172 -0.1265786,-0.32931 -2.4536644,-0.83163 -2.7914229,-0.84228 z m 12.116638,1.94868 a 0.30129789,0.39904377 14.848378 0 1 0.05074,0.009 0.30129789,0.39904377 14.848378 0 1 0.182016,0.46834 0.30129789,0.39904377 14.848378 0 1 -0.39685,0.30025 0.30129789,0.39904377 14.848378 0 1 -0.182013,-0.46833 0.30129789,0.39904377 14.848378 0 1 0.34611,-0.30888 z m -7.7891681,0.35135 a 0.30129789,0.39904377 14.848379 0 1 0.05074,0.009 0.30129789,0.39904377 14.848379 0 1 0.1820127,0.46833 0.30129789,0.39904377 14.848379 0 1 -0.3968477,0.30026 0.30129789,0.39904377 14.848379 0 1 -0.1820136,-0.46834 0.30129789,0.39904377 14.848379 0 1 0.3461085,-0.30908 z"
       id="path836"
       inkscape:connector-curvature="0" />
  </g>
</svg>
